<svg width="40" height="40" viewBox="0 0 1024 1024" fill="none" xmlns="http://www.w3.org/2000/svg">
<g>
<rect width="1024" height="1024" rx="75" fill="url(#gradient)"/>
<rect x="112" y="195" width="799.647" height="634" rx="60" fill="#252525"/>
<path d="M112 255C112 221.863 138.863 195 172 195H851.647C884.784 195 911.647 221.863 911.647 255V375.782H112V255Z" fill="#323232"/>
<circle cx="211.22" cy="290.857" r="32.7931" fill="#FF5F57"/>
<circle cx="308.759" cy="290.857" r="32.7931" fill="#FEBC2E"/>
<circle cx="407.979" cy="290.857" r="32.7931" fill="#28C840"/>
<path d="M323.644 548.678L439.252 485.687C443.916 483.145 449.601 486.521 449.601 491.833V516.046C449.601 519.762 447.54 523.172 444.249 524.9L368.955 564.429C367.515 565.185 367.531 567.252 368.983 567.985L444.109 605.924C447.477 607.625 449.601 611.077 449.601 614.85V639.087C449.601 644.368 443.975 647.747 439.313 645.266L323.731 583.771C320.468 582.035 318.428 578.639 318.428 574.943V557.459C318.428 553.798 320.429 550.43 323.644 548.678Z" fill="white"/>
<path d="M701.265 548.678L585.657 485.687C580.992 483.145 575.308 486.521 575.308 491.833V516.046C575.308 519.762 577.369 523.172 580.659 524.9L655.954 564.429C657.394 565.185 657.377 567.252 655.926 567.985L580.8 605.924C577.432 607.625 575.308 611.077 575.308 614.85V639.087C575.308 644.368 580.933 647.747 585.596 645.266L701.177 583.771C704.441 582.035 706.48 578.639 706.48 574.943V557.459C706.48 553.798 704.479 550.43 701.265 548.678Z" fill="white"/>
</g>
<defs>
<linearGradient id="gradient" x1="16" y1="17.5" x2="1003.5" y2="1000" gradientUnits="userSpaceOnUse">
<stop stop-color="#D796B4"/>
<stop offset="1" stop-color="#6850A3"/>
</linearGradient>
</defs>
</svg>
